<?xml version="1.0" encoding="UTF-8"?>
<!DOCTYPE svg PUBLIC "-//W3C//DTD SVG 1.1//EN" "http://www.w3.org/Graphics/SVG/1.1/DTD/svg11.dtd">
<!-- Creator: CorelDRAW 2018 (64 Bit) -->
<svg xmlns="http://www.w3.org/2000/svg" xml:space="preserve" width="108.353mm" height="103.995mm" version="1.1" style="shape-rendering:geometricPrecision; text-rendering:geometricPrecision; image-rendering:optimizeQuality; fill-rule:evenodd; clip-rule:evenodd"
viewBox="0 0 6169.33 5921.21"
 xmlns:xlink="http://www.w3.org/1999/xlink">
 <defs>
  <style type="text/css">
   <![CDATA[
    .fil0 {fill:#1A374F}
    .fil1 {fill:#1E4C61}
    .fil6 {fill:#29577D}
    .fil2 {fill:#295D75}
    .fil4 {fill:#326E8A}
    .fil5 {fill:#4385A3}
    .fil3 {fill:#4893B5}
   ]]>
  </style>
 </defs>
 <g id="Camada_x0020_1">
  <metadata id="CorelCorpID_0Corel-Layer"/>
  <rect class="fil0" x="0" y="-0" width="6169.33" height="5921.21"/>
  <path class="fil1" d="M1179.63 3659.45c7.16,30.09 29.46,69.01 43.9,95.87 26.52,49.32 37.76,66.69 69.61,107.38l48.23 58.79c21.73,26 49.12,46.9 73.87,70.2 88.72,83.52 269.38,162.33 391.17,180.96 31.41,4.81 62.48,7.91 93.14,9.38l83.49 0c184.11,-8.96 350.27,-77.27 482.05,-188.08 32.92,-27.68 117.6,-109.65 138.67,-149.46 115.43,61.08 199.22,90.87 332.63,107.79l102.93 7c117.02,-9.67 178.6,-15.34 282.22,-51.45 74.14,-25.83 137.07,-60.93 195.98,-100.38 10.95,16.36 63.93,59.73 83.38,77.15 79.35,71.06 211.88,138.6 309.37,176.32 51.17,19.8 137.28,40.09 194.59,48.25 6.97,1 25.09,3.83 35.82,5.34 13.55,1.91 24.9,1.05 38.35,2.81 101.04,13.18 213.15,-2.99 299.23,-20 127.27,-25.15 237.27,-76.02 340.7,-140.87 65.65,-41.17 124.47,-91.29 179.27,-145.91 7.42,-7.4 13.73,-12.79 20.39,-20.77 8.38,-10.03 8.89,-12.63 18.69,-22.48 13.92,-13.99 25.15,-28.92 37.22,-45.1 33.41,-44.78 108.82,-151.2 122.58,-202.88 -31.22,-13.59 -235.08,-18.79 -284.29,-19.52 -192.75,-2.88 -377.32,12.21 -565.75,42.36 -90.54,14.48 -170.87,30.8 -265.82,36.01 -191.35,10.49 -370.79,-9.78 -538.11,-63.91 -75.77,-24.51 -145.36,-57.66 -218.72,-85.83 -404.85,-155.49 -843.02,-243.38 -1276.72,-115.23 -310.05,91.62 -558.37,263.62 -868.07,346.26z"/>
  <path class="fil2" d="M1714.86 2824.26c-201.64,-62.28 -337.07,140.11 -454.37,257.36 -11.86,11.85 -20.46,17.65 -31.66,29.95l-86.25 89.06c-8.03,20.8 -13.99,73.48 -16.46,126.86l0 96.5c0.56,8.65 1.32,16.44 2.28,23.06 6.3,43.22 9.55,74.02 19.07,112.65 7.35,29.84 19.14,74.52 32.16,99.74 309.7,-82.64 558.02,-254.64 868.07,-346.26 433.7,-128.15 871.86,-40.26 1276.72,115.23 73.36,28.17 142.95,61.32 218.72,85.83 167.33,54.14 346.76,74.41 538.11,63.91 94.94,-5.21 175.28,-21.53 265.82,-36.01 188.43,-30.15 373,-45.24 565.75,-42.36 49.21,0.73 253.07,5.94 284.29,19.52 39.76,-48.57 92.58,-282.57 94.38,-376.65l0 -18.33c-0.07,-21.6 -0.01,-43.22 0,-64.82l0 -1.22 -4.12 -77.99c-18.71,-9.86 -44.89,-28.48 -65.8,-41.42 -121.04,-74.85 -277.51,-120.23 -423.01,-97.24 -95.22,15.05 -103.93,33.63 -156.75,51.86 -13.05,13.46 -69.37,43.4 -88.92,55.92l-250.09 169.38c-10.6,13.11 -44.62,36.96 -59.1,48.29l-174.85 146.12c-96.47,85.31 -169.02,135.82 -294.41,93.23 -128.79,-43.74 -422.19,-235.52 -535.7,-316.37 -255.03,-181.66 -544.04,-422.65 -911.44,-242.59 -76.29,37.39 -192.78,115.91 -245.02,178.4 -45.75,-10.43 -255.1,-165.91 -367.4,-201.63z"/>
  <path class="fil3" d="M1142.58 3200.63l86.25 -89.06c11.21,-12.3 19.8,-18.1 31.66,-29.95 117.3,-117.25 252.73,-319.64 454.37,-257.36 14.64,-16.45 424.23,-281.13 448.86,-296.64 145.97,-91.84 249.99,-88.63 409.85,17.53l112.5 77.65 205.55 -132.87c53.29,-35.68 156.83,-107.88 210.34,-131.22 136.28,-59.45 269.46,6.41 378.29,82.45l99.01 73.01c48.66,-17.79 81.67,-40.21 141.2,-55.38 172.65,-43.97 324.92,21.92 466.98,98.29 93.54,50.29 312.53,207.6 399.89,291.64l54.48 44.8c52.82,-18.23 61.54,-36.81 156.75,-51.86 145.5,-22.99 301.97,22.39 423.01,97.24 20.91,12.94 47.09,31.56 65.8,41.42 -0.88,-40.39 -19.79,-120.12 -29.62,-159.94 -79.05,-320.1 -321.18,-574.8 -627.15,-698.24 -329.56,-132.95 -748.5,-70.44 -1025.38,163.58 -9.54,8.06 -15.23,12.55 -24.76,20.53 -14.93,12.51 -67.49,59.04 -71.18,72.88 -13.07,-3.05 -16.65,-6.91 -27.15,-14.01 -88.87,-60.07 -228.12,-105.18 -336.74,-120.13 -52.64,-7.25 -104.72,-5.81 -162.95,-5.81 -70.8,-133.81 -157.18,-239.84 -299.07,-310.11 -76.73,-37.99 -141.14,-62.66 -231.53,-73.06 -98.3,-11.31 -189.8,-3.36 -272.92,20.02 -157.99,44.46 -272.92,133.98 -361.91,247.27 -68.54,87.27 -117.78,211.94 -131.86,325.03 -12.59,101.08 -3.35,77.62 -3.35,144.84 -41.09,3.42 -156.08,68.39 -191.8,92.21 -60.7,40.48 -124.9,95.56 -169.83,151.23 -6.58,8.16 -10.71,11.55 -17.12,19.93 -10.9,14.29 -20.05,26.81 -31.21,42.89 -49.34,71.05 -65.15,102.72 -98.69,189.44 -8.17,21.12 -29.94,89.13 -30.55,111.78z"/>
  <path class="fil4" d="M1714.86 2824.26c112.3,35.72 321.64,191.21 367.4,201.63 52.25,-62.49 168.73,-141.01 245.02,-178.4 367.4,-180.05 656.41,60.93 911.44,242.59 113.51,80.85 406.91,272.62 535.7,316.37 125.39,42.59 197.94,-7.93 294.41,-93.23l174.85 -146.12c14.47,-11.32 48.5,-35.18 59.1,-48.29 -14.49,-11.01 -26.24,-27.92 -42.25,-41.92 -120.66,-105.5 -230.64,-149.16 -378.87,-287.96l-236.34 -216.47c-17.17,-16.32 -47.84,-35.65 -66.08,-58.29l-99.01 -73.01c-108.83,-76.04 -242.01,-141.89 -378.29,-82.45 -53.51,23.34 -157.06,95.55 -210.34,131.22l-205.55 132.87 -112.5 -77.65c-159.86,-106.16 -263.88,-109.37 -409.85,-17.53 -24.64,15.5 -434.22,280.19 -448.86,296.64z"/>
  <path class="fil5" d="M3579.26 2514.16c18.23,22.64 48.91,41.97 66.08,58.29l236.34 216.47c148.23,138.8 258.21,182.46 378.87,287.96 16.01,14 27.76,30.92 42.25,41.92l250.09 -169.38c19.55,-12.51 75.87,-42.46 88.92,-55.92l-54.48 -44.8c-87.36,-84.03 -306.36,-241.35 -399.89,-291.64 -142.06,-76.37 -294.33,-142.26 -466.98,-98.29 -59.53,15.16 -92.53,37.58 -141.2,55.38z"/>
  <path class="fil6" d="M5183.45 2343.09l1.01 -198.6 -197.56 0 196.55 198.6zm-3485.22 -330.32c23.52,-15.75 75.78,-73.73 99.82,-97.77 17.98,-17.97 93.1,-86.51 97.75,-103.93l-197.57 0 0 201.7zm-123.47 419.86c0,-68.44 -38.26,-98.79 -102.89,-98.79 -76.09,0 -114.07,102.36 -56.8,159.7 59.68,59.77 159.69,14.27 159.69,-60.91zm1177.17 -761.51c0,174.62 251.08,177.54 251.08,-4.13 0,-54.21 -53.94,-115.25 -119.36,-115.25 -39.49,0 -69.47,7.77 -97.92,37.93 -16.78,17.79 -33.8,47.93 -33.8,81.45zm349.86 271.67c0,124.52 102.62,230.51 214.03,230.51 54.61,0 68.68,2.68 120.79,-23.28 65.55,-32.65 126.18,-107.6 126.18,-190.76 0,-74.63 -15.36,-133.2 -70.92,-184.3 -153.48,-141.15 -390.08,-26.67 -390.08,167.83z"/>
 </g>
</svg>
